<svg xmlns="http://www.w3.org/2000/svg" xmlns:xlink="http://www.w3.org/1999/xlink" width="500" zoomAndPan="magnify" viewBox="0 0 375 374.999991" height="500" preserveAspectRatio="xMidYMid meet" version="1.0"><defs><g/><clipPath id="63f9d5d6de"><path d="M 9 48.757812 L 186 48.757812 L 186 299.257812 L 9 299.257812 Z M 9 48.757812 " clip-rule="nonzero"/></clipPath><clipPath id="b6581abd3b"><path d="M 20.15625 232.058594 L 67.042969 232.058594 L 67.042969 278.945312 L 20.15625 278.945312 Z M 20.15625 232.058594 " clip-rule="nonzero"/></clipPath><clipPath id="679c080e08"><path d="M 43.597656 232.058594 C 30.652344 232.058594 20.15625 242.554688 20.15625 255.503906 C 20.15625 268.449219 30.652344 278.945312 43.597656 278.945312 C 56.546875 278.945312 67.042969 268.449219 67.042969 255.503906 C 67.042969 242.554688 56.546875 232.058594 43.597656 232.058594 Z M 43.597656 232.058594 " clip-rule="nonzero"/></clipPath><clipPath id="1fa4dafa65"><path d="M 27.480469 239.386719 L 59.726562 239.386719 L 59.726562 271.628906 L 27.480469 271.628906 Z M 27.480469 239.386719 " clip-rule="nonzero"/></clipPath><clipPath id="6f1c499308"><path d="M 43.601562 239.386719 C 34.699219 239.386719 27.480469 246.605469 27.480469 255.507812 C 27.480469 264.410156 34.699219 271.628906 43.601562 271.628906 C 52.507812 271.628906 59.726562 264.410156 59.726562 255.507812 C 59.726562 246.605469 52.507812 239.386719 43.601562 239.386719 Z M 43.601562 239.386719 " clip-rule="nonzero"/></clipPath><clipPath id="bcb4fe3e9b"><path d="M 27.480469 239.386719 L 59.71875 239.386719 L 59.71875 271.625 L 27.480469 271.625 Z M 27.480469 239.386719 " clip-rule="nonzero"/></clipPath><clipPath id="3ed67c788e"><path d="M 43.597656 239.386719 C 34.695312 239.386719 27.480469 246.601562 27.480469 255.503906 C 27.480469 264.40625 34.695312 271.625 43.597656 271.625 C 52.5 271.625 59.71875 264.40625 59.71875 255.503906 C 59.71875 246.601562 52.5 239.386719 43.597656 239.386719 Z M 43.597656 239.386719 " clip-rule="nonzero"/></clipPath><clipPath id="aa657678b5"><path d="M 24.503906 236.40625 L 62.695312 236.40625 L 62.695312 274.597656 L 24.503906 274.597656 Z M 24.503906 236.40625 " clip-rule="nonzero"/></clipPath><clipPath id="c79f556c43"><path d="M 43.597656 236.40625 C 33.050781 236.40625 24.503906 244.957031 24.503906 255.503906 C 24.503906 266.050781 33.050781 274.597656 43.597656 274.597656 C 54.144531 274.597656 62.695312 266.050781 62.695312 255.503906 C 62.695312 244.957031 54.144531 236.40625 43.597656 236.40625 Z M 43.597656 236.40625 " clip-rule="nonzero"/></clipPath><clipPath id="54079342d5"><path d="M 3 251 L 64 251 L 64 324 L 3 324 Z M 3 251 " clip-rule="nonzero"/></clipPath><clipPath id="fe70c91b58"><path d="M 57.097656 246.707031 L 69.574219 319.902344 L 6.734375 330.613281 L -5.742188 257.417969 Z M 57.097656 246.707031 " clip-rule="nonzero"/></clipPath><clipPath id="62088b6429"><path d="M 57.097656 246.707031 L 69.574219 319.902344 L 6.734375 330.613281 L -5.742188 257.417969 Z M 57.097656 246.707031 " clip-rule="nonzero"/></clipPath><clipPath id="f0400308db"><path d="M 1 249 L 66 249 L 66 326 L 1 326 Z M 1 249 " clip-rule="nonzero"/></clipPath><clipPath id="7bd31f19e4"><path d="M 57.097656 246.707031 L 69.574219 319.902344 L 6.734375 330.613281 L -5.742188 257.417969 Z M 57.097656 246.707031 " clip-rule="nonzero"/></clipPath><clipPath id="4087a173d7"><path d="M 57.097656 246.707031 L 69.574219 319.902344 L 6.734375 330.613281 L -5.742188 257.417969 Z M 57.097656 246.707031 " clip-rule="nonzero"/></clipPath><clipPath id="751fe2a0f3"><path d="M 57.101562 246.730469 L 69.546875 319.738281 L 6.71875 330.449219 L -5.726562 257.441406 Z M 57.101562 246.730469 " clip-rule="nonzero"/></clipPath></defs><g clip-path="url(#63f9d5d6de)"><path fill="#60b5ff" d="M 185.816406 273.183594 L 172.058594 139.40625 C 170.957031 128.75 162 120.648438 151.296875 120.648438 L 138.636719 120.648438 L 138.636719 89.53125 C 138.636719 66.96875 120.226562 48.605469 97.664062 48.605469 C 75.101562 48.605469 56.691406 66.96875 56.691406 89.53125 L 56.691406 120.648438 L 44.035156 120.648438 C 33.328125 120.648438 24.375 128.75 23.273438 139.40625 L 9.515625 273.183594 C 8.066406 287.039062 18.972656 299.097656 32.878906 299.097656 L 162.453125 299.097656 C 176.359375 299.097656 187.265625 287.039062 185.816406 273.183594 Z M 126.132812 148.210938 C 121.828125 148.210938 118.328125 144.761719 118.328125 140.457031 L 118.328125 120.648438 L 69.199219 120.648438 L 69.199219 89.53125 C 69.199219 73.871094 81.957031 61.113281 97.664062 61.113281 C 113.375 61.113281 126.132812 73.871094 126.132812 89.53125 C 126.132812 116.996094 126.132812 131.152344 126.132812 148.210938 Z M 126.132812 148.210938 " fill-opacity="1" fill-rule="nonzero"/></g><path stroke-linecap="butt" transform="matrix(2.3639, -0.266597, 0.266597, 2.3639, -209.827292, 222.338393)" fill="none" stroke-linejoin="miter" d="M 122.265979 7.655671 C 121.353737 5.312054 120.865457 2.857615 120.801137 0.292354 C 120.735001 -2.27146 121.0287 -4.875663 121.680416 -7.518807 C 122.330501 -10.162135 123.281163 -12.759997 124.530771 -15.312577 C 125.782011 -17.864973 127.259702 -20.286073 128.964029 -22.577509 C 130.670172 -24.870391 132.545718 -26.965704 134.589405 -28.866892 C 136.634723 -30.767897 138.782397 -32.38966 141.035508 -33.730181 C 143.286987 -35.070886 145.572672 -36.040887 147.890931 -36.640368 C 150.989451 -37.447643 153.730408 -37.72184 156.113619 -37.461327 C 158.49683 -37.200815 160.494935 -36.529307 162.109934 -35.449884 C 163.724749 -34.368829 164.908231 -32.994361 165.663827 -31.327742 C 166.315041 -29.922416 166.582462 -28.352164 166.464826 -26.620434 C 166.347189 -24.888703 165.944409 -23.104856 165.253222 -21.269258 C 164.563667 -19.433477 163.666014 -17.642647 162.558816 -15.898583 C 161.451434 -14.152888 160.22063 -12.558266 158.867853 -11.112902 C 157.513444 -9.667722 156.132265 -8.483344 154.725762 -7.557954 C 153.321075 -6.634012 151.966504 -6.081178 150.66368 -5.899269 C 149.283381 -5.689744 148.001252 -5.852518 146.817111 -6.385959 C 145.631522 -6.921216 144.693154 -7.714467 144.004006 -8.768791 C 143.313411 -9.824932 143.002058 -11.034945 143.067052 -12.402461 C 143.132046 -13.769978 143.710855 -15.195219 144.805295 -16.679633 C 145.66358 -17.799047 146.504212 -18.659363 147.32356 -19.257687 C 148.144723 -19.857458 148.938981 -20.306584 149.706336 -20.605066 C 150.475506 -20.904996 151.198179 -21.158943 151.874354 -21.366908 C 152.552162 -21.574689 153.163486 -21.823017 153.711407 -22.109892 C 154.257512 -22.39532 154.727012 -22.851328 155.11646 -23.476652 C 155.872463 -24.700139 156.289637 -25.644567 156.367797 -26.308303 C 156.445957 -26.972039 156.276553 -27.389387 155.8594 -27.558715 C 155.442247 -27.728043 154.856612 -27.663546 154.102312 -27.363592 C 153.346379 -27.063822 152.499992 -26.562738 151.562966 -25.85871 C 151.250685 -25.624577 150.931301 -25.371416 150.606262 -25.097412 C 150.27959 -24.823591 149.934553 -24.518792 149.570782 -24.179752 C 148.710876 -23.397622 147.805957 -22.48011 146.855842 -21.425584 C 145.905727 -20.371057 144.981093 -19.264083 144.081941 -18.104661 C 143.182974 -16.946872 142.370511 -15.794198 141.641474 -14.64864 C 140.910805 -13.503266 140.350716 -12.434498 139.961576 -11.445597 C 139.231658 -9.544964 138.919959 -7.792156 139.023584 -6.190803 C 139.127208 -4.58945 139.492555 -3.242804 140.117625 -2.147784 C 140.742878 -1.054397 141.432381 -0.325567 142.187763 0.0388902 C 143.514869 0.638028 144.882128 0.749262 146.289724 0.370959 C 147.695505 -0.00589566 149.088586 -0.709717 150.468785 -1.738874 C 151.848799 -2.766399 153.125501 -3.932815 154.296889 -5.235042 C 154.817536 -5.807564 155.488485 -6.14501 156.308472 -6.250829 C 157.128274 -6.355015 157.98784 -6.269642 158.887352 -5.99634 C 159.785233 -5.723223 160.612177 -5.319299 161.366554 -4.784752 C 162.122747 -4.251653 162.721966 -3.645372 163.164577 -2.969173 C 163.607005 -2.291342 163.775416 -1.60145 163.671259 -0.897682 C 163.568096 -0.24668 163.378158 0.573001 163.106341 1.561914 C 162.832709 2.552274 162.473296 3.658547 162.031181 4.882732 C 163.671863 3.580552 165.163115 2.284654 166.503121 0.996486 C 167.844943 -0.29313 169.023399 -1.262416 170.038857 -1.914635 C 170.611928 -2.277992 171.217266 -2.414628 171.85487 -2.324543 C 172.493922 -2.232642 173.086649 -1.979067 173.632867 -1.562187 C 174.179085 -1.145306 174.60944 -0.624168 174.922484 -0.000587464 C 175.233712 0.624441 175.351222 1.282152 175.273381 1.972364 C 175.19554 2.662576 174.856994 3.32008 174.257743 3.944878 C 173.086207 5.116545 171.737858 6.405425 170.214328 7.811702 C 168.690799 9.21798 167.076163 10.670166 165.370423 12.168261 C 163.664866 13.664724 161.945888 15.162979 160.215488 16.659946 C 158.483272 18.15836 156.809343 19.608817 155.194966 21.014763 C 154.30914 22.891203 153.385993 24.746909 152.422263 26.581513 C 151.458348 28.417749 150.507106 30.156267 149.570169 31.79725 C 148.293472 34.062552 146.98593 35.898041 145.644096 37.30498 C 144.304078 38.710472 142.903145 39.557172 141.444745 39.843817 C 140.482285 40.026105 139.4661 39.908197 138.39927 39.492091 C 137.330808 39.075801 136.296035 38.463363 135.293135 37.656224 C 134.290235 36.849085 133.41154 35.936977 132.656867 34.921531 C 131.900562 33.905901 131.360771 32.889903 131.035678 31.874983 C 130.708953 30.859879 130.689602 29.947192 130.977258 29.140184 C 131.575108 27.604723 133.033614 26.04239 135.351146 24.453004 C 136.731846 23.228913 138.443623 21.809165 140.487924 20.195573 C 142.532409 18.58035 144.739156 16.874364 147.109797 15.077799 C 147.240198 14.844637 147.369727 14.589894 147.499649 14.317018 C 147.629755 14.042511 147.747335 13.776506 147.851126 13.515555 C 146.627633 14.635093 145.332663 15.553233 143.964584 16.269789 C 142.598138 16.986529 141.107288 17.487639 139.492036 17.773119 C 136.731131 18.268149 134.218979 18.125291 131.952317 17.344178 C 129.687286 16.563248 127.734008 15.318435 126.093746 13.613186 C 124.453484 11.907937 123.177079 9.921493 122.265979 7.655671 Z M 186.250525 -20.312412 C 186.250573 -20.781705 186.008343 -21.022191 185.527285 -21.035133 C 185.046226 -21.048074 184.40715 -20.905329 183.613136 -20.604896 C 182.819307 -20.306095 181.952247 -19.914753 181.015588 -19.433765 C 180.078745 -18.951145 179.134247 -18.444601 178.183357 -17.910687 C 177.232467 -17.376773 176.360181 -16.895135 175.566315 -16.464141 C 174.772633 -16.034779 174.128393 -15.729022 173.633594 -15.546871 C 172.48647 -15.104491 171.4576 -15.007358 170.546801 -15.253841 C 169.636186 -15.501955 168.85418 -15.996654 168.202416 -16.737752 C 167.552467 -17.480299 167.037667 -18.36624 166.659648 -19.39539 C 166.283076 -20.422726 166.042403 -21.497528 165.937258 -22.616534 C 165.833929 -23.736988 165.878301 -24.80443 166.07382 -25.820124 C 166.269339 -26.835818 166.614203 -27.695863 167.109859 -28.398443 C 167.681848 -29.206433 168.580228 -30.007358 169.804998 -30.801218 C 171.028137 -31.595261 172.448503 -32.350537 174.06265 -33.065781 C 175.676981 -33.782657 177.362616 -34.413826 179.121372 -34.960735 C 180.878496 -35.507829 182.577922 -35.924275 184.218018 -36.210258 C 186.197521 -36.575288 188.039986 -36.750868 189.745596 -36.73863 C 191.451023 -36.72476 193.00783 -36.535966 194.414386 -36.172431 C 196.36668 -35.651507 197.76606 -34.784781 198.612711 -33.573887 C 199.459361 -32.362993 199.895853 -30.943877 199.922187 -29.316539 C 199.94852 -27.689201 199.687821 -25.96369 199.140089 -24.140006 C 200.104962 -25.677039 201.165075 -27.018255 202.323877 -28.164919 C 203.482494 -29.30995 204.492099 -30.481702 205.351059 -31.680358 C 206.184182 -32.825744 207.161902 -33.685472 208.280771 -34.258278 C 209.401272 -34.8309 210.553537 -35.201644 211.737566 -35.370511 C 212.92341 -35.540826 214.030136 -35.566385 215.057927 -35.44882 C 216.087533 -35.332702 216.927322 -35.130582 217.577478 -34.844091 C 217.889883 -34.713016 218.352049 -34.459293 218.965608 -34.082739 C 219.577351 -33.704738 220.221926 -33.222234 220.897883 -32.637043 C 221.575288 -32.050036 222.187597 -31.354698 222.734258 -30.546135 C 223.281103 -29.739203 223.672371 -28.827535 223.906617 -27.812946 C 224.140678 -26.796726 224.115261 -25.677572 223.828367 -24.452406 C 223.541019 -23.281822 223.163952 -22.136229 222.695533 -21.01581 C 222.227115 -19.895391 221.705599 -18.685118 221.132433 -17.383175 C 222.303856 -19.257149 223.457872 -20.800943 224.589216 -22.011843 C 225.722192 -23.22256 226.888564 -24.231216 228.085251 -25.039809 C 228.944631 -25.612136 229.908734 -25.911563 230.975931 -25.938275 C 232.044575 -25.963171 233.112484 -25.761764 234.179474 -25.33242 C 235.248095 -24.902892 236.236788 -24.277474 237.149 -23.457429 C 238.05958 -22.637567 238.801825 -21.673097 239.374287 -20.565833 C 239.948565 -19.460017 240.267341 -18.242558 240.332245 -16.91327 C 240.397334 -15.585614 240.117801 -14.205939 239.491832 -12.772797 C 239.074757 -11.887847 238.522373 -10.87274 237.831233 -9.726213 C 237.141908 -8.581134 236.400431 -7.369228 235.605537 -6.093944 C 234.810459 -4.817027 234.055757 -3.502508 233.339615 -2.148939 C 232.623288 -0.793738 232.044074 0.547182 231.601788 1.875453 C 231.106393 3.410902 230.944281 4.511334 231.113821 5.176567 C 231.281913 5.839983 231.634743 6.1987 232.167599 6.250532 C 232.702087 6.302549 233.242476 6.185027 233.788765 5.897968 C 234.38863 5.560767 235.045899 5.051575 235.761651 4.37547 C 236.477587 3.697733 237.193437 2.962151 237.911017 2.167275 C 238.626781 1.373846 239.278099 0.624376 239.862971 -0.0780565 C 240.449659 -0.781937 240.898069 -1.314684 241.210202 -1.679377 C 241.522654 -2.017595 241.946786 -2.232503 242.480967 -2.324285 C 243.015148 -2.416068 243.561794 -2.36929 244.121273 -2.187215 C 244.680752 -2.005141 245.149691 -1.679599 245.528089 -1.210589 C 245.904855 -0.741763 246.112733 -0.123434 246.151725 0.6444 C 246.190717 1.412234 245.950185 2.343534 245.430128 3.438299 C 244.93478 4.504455 244.264472 5.773961 243.417573 7.246633 C 242.570858 8.717673 241.653881 10.240278 240.664828 11.815895 C 239.674142 13.391328 238.692106 14.890071 237.714192 16.308309 C 236.737725 17.728362 235.846339 18.906836 235.038403 19.843548 C 234.127167 20.963601 233.052722 21.757889 231.816701 22.226597 C 230.579047 22.695122 229.33602 22.903604 228.085986 22.851859 C 226.835952 22.800115 225.742329 22.57763 224.804747 22.187668 C 223.398399 21.587855 222.155135 20.728822 221.073507 19.608752 C 219.993511 18.488866 219.114508 17.213182 218.438131 15.781884 C 217.760306 14.34877 217.304221 12.824992 217.069875 11.210549 C 216.83553 9.596106 216.862466 7.994606 217.149052 6.405864 C 217.408673 4.895051 217.864207 3.22952 218.516025 1.406007 C 219.166026 -0.416058 219.921193 -2.232872 220.781341 -4.042804 C 221.639858 -5.852921 222.54616 -7.500664 223.496802 -8.98477 C 224.447443 -10.468877 225.35133 -11.640984 226.211727 -12.500724 C 226.0542 -12.422647 225.76853 -12.160727 225.351821 -11.718595 C 224.935112 -11.276462 224.446412 -10.723472 223.887168 -10.057808 C 223.326477 -9.39396 222.753211 -8.691871 222.168818 -7.949725 C 221.582793 -7.207763 221.035977 -6.491124 220.526924 -5.801622 C 220.019319 -5.110305 219.608892 -4.518743 219.296907 -4.023489 C 218.619176 -2.981207 217.876987 -1.777644 217.069972 -0.409536 C 216.263141 0.95694 215.442398 2.402818 214.609743 3.925017 C 213.776903 5.448849 212.968012 6.965466 212.187779 8.477054 C 211.406099 9.986826 210.690019 11.41311 210.039721 12.754276 C 209.387792 14.095258 208.840953 15.266321 208.399022 16.269097 C 207.955459 17.27169 207.669349 18.021036 207.539243 18.515321 C 207.278039 19.556656 206.718072 20.331301 205.859343 20.839255 C 205.000614 21.347209 203.977265 21.615168 202.79293 21.640236 C 201.60841 21.666936 200.396469 21.497206 199.160187 21.133045 C 197.923906 20.768885 196.771478 20.247283 195.702721 19.569871 C 194.635596 18.892643 193.783021 18.085933 193.145181 17.14811 C 192.50734 16.210286 192.226855 15.19544 192.30391 14.101939 C 192.35708 13.527922 192.603722 12.630361 193.047468 11.406359 C 193.489583 10.182174 194.082206 8.737009 194.823706 7.070679 C 195.567022 5.402902 196.393408 3.613949 197.305046 1.699109 C 198.2165 -0.214099 199.167189 -2.167499 200.156929 -4.159458 C 201.14522 -6.153234 202.109282 -8.078686 203.046402 -9.941079 C 203.985154 -11.803287 204.856577 -13.522715 205.663751 -15.097362 C 206.471109 -16.673641 207.135859 -17.98178 207.656553 -19.023595 C 207.864097 -19.413304 208.014459 -19.764845 208.106005 -20.078402 C 208.197367 -20.390328 208.197477 -20.567129 208.105966 -20.605541 C 208.014456 -20.643953 207.773356 -20.469544 207.382116 -20.077418 C 206.341632 -18.98351 205.201123 -17.603439 203.965486 -15.936654 C 202.728218 -14.270053 201.471099 -12.442097 200.195394 -10.449339 C 198.919689 -8.456581 197.662939 -6.412111 196.425144 -4.31593 C 195.188981 -2.219565 194.023999 -0.182923 192.929831 1.797259 C 191.835846 3.77581 190.872508 5.592281 190.039816 7.246674 C 189.205677 8.899251 188.554962 10.273419 188.086225 11.367362 C 187.461078 12.851824 186.861928 14.296253 186.288591 15.702282 C 185.716701 17.110126 185.182941 18.267792 184.686758 19.180175 C 184.140777 19.83081 183.39807 20.247744 182.460454 20.429529 C 181.522837 20.611314 180.488324 20.611967 179.355466 20.429674 C 178.222608 20.247381 177.090178 19.914762 175.956362 19.433265 C 174.824178 18.951953 173.769064 18.358703 172.792283 17.656962 C 171.815687 16.95359 171.008383 16.185035 170.370371 15.351297 C 169.732359 14.517559 169.355702 13.652155 169.238953 12.75327 C 169.120387 11.855832 169.361742 10.975852 169.961017 10.116407 C 170.689883 9.074935 171.588224 7.746871 172.656041 6.132215 C 173.723858 4.51756 174.876081 2.740567 176.112711 0.801238 C 177.349525 -1.139722 178.560514 -3.144736 179.745861 -5.215436 C 180.931025 -7.284503 182.017427 -9.283738 183.008148 -11.211142 C 183.997237 -13.138729 184.785309 -14.895649 185.370914 -16.483717 C 185.956703 -18.073417 186.249302 -19.349166 186.250525 -20.312412 Z M 186.250525 -20.312412 " stroke="#ffffff" stroke-width="7.3" stroke-opacity="1" stroke-miterlimit="4"/><g fill="#ff9149" fill-opacity="1"><g transform="translate(81.204176, 237.395605)"><g><path d="M 0.03125 -29.546875 C -2.75 -34.859375 -4.554688 -40.53125 -5.390625 -46.5625 C -6.234375 -52.601562 -6.234375 -58.835938 -5.390625 -65.265625 C -4.554688 -71.691406 -3 -78.085938 -0.71875 -84.453125 C 1.550781 -90.816406 4.394531 -96.9375 7.8125 -102.8125 C 11.238281 -108.6875 15.113281 -114.140625 19.4375 -119.171875 C 23.757812 -124.210938 28.398438 -128.617188 33.359375 -132.390625 C 38.328125 -136.171875 43.476562 -139.078125 48.8125 -141.109375 C 55.914062 -143.828125 62.316406 -145.195312 68.015625 -145.21875 C 73.722656 -145.25 78.628906 -144.195312 82.734375 -142.0625 C 86.835938 -139.9375 90.003906 -137.007812 92.234375 -133.28125 C 94.140625 -130.132812 95.1875 -126.5 95.375 -122.375 C 95.5625 -118.25 95.082031 -113.921875 93.9375 -109.390625 C 92.789062 -104.867188 91.144531 -100.394531 89 -95.96875 C 86.851562 -91.550781 84.367188 -87.453125 81.546875 -83.671875 C 78.722656 -79.898438 75.773438 -76.734375 72.703125 -74.171875 C 69.628906 -71.617188 66.578125 -69.953125 63.546875 -69.171875 C 60.347656 -68.296875 57.273438 -68.332031 54.328125 -69.28125 C 51.378906 -70.226562 48.945312 -71.859375 47.03125 -74.171875 C 45.125 -76.484375 44.066406 -79.265625 43.859375 -82.515625 C 43.648438 -85.765625 44.640625 -89.289062 46.828125 -93.09375 C 48.566406 -95.96875 50.320312 -98.222656 52.09375 -99.859375 C 53.875 -101.492188 55.632812 -102.769531 57.375 -103.6875 C 59.113281 -104.601562 60.753906 -105.394531 62.296875 -106.0625 C 63.835938 -106.738281 65.21875 -107.488281 66.4375 -108.3125 C 67.65625 -109.132812 68.640625 -110.332031 69.390625 -111.90625 C 70.847656 -115.007812 71.582031 -117.351562 71.59375 -118.9375 C 71.601562 -120.53125 71.09375 -121.46875 70.0625 -121.75 C 69.03125 -122.039062 67.660156 -121.734375 65.953125 -120.828125 C 64.253906 -119.921875 62.394531 -118.507812 60.375 -116.59375 C 59.6875 -115.957031 58.992188 -115.269531 58.296875 -114.53125 C 57.609375 -113.800781 56.867188 -112.988281 56.078125 -112.09375 C 54.265625 -110.019531 52.375 -107.609375 50.40625 -104.859375 C 48.4375 -102.109375 46.546875 -99.242188 44.734375 -96.265625 C 42.921875 -93.285156 41.300781 -90.34375 39.875 -87.4375 C 38.457031 -84.539062 37.421875 -81.875 36.765625 -79.4375 C 35.554688 -74.738281 35.285156 -70.507812 35.953125 -66.75 C 36.617188 -63 37.835938 -59.910156 39.609375 -57.484375 C 41.390625 -55.066406 43.21875 -53.53125 45.09375 -52.875 C 48.40625 -51.8125 51.671875 -51.914062 54.890625 -53.1875 C 58.109375 -54.457031 61.210938 -56.488281 64.203125 -59.28125 C 67.191406 -62.082031 69.894531 -65.179688 72.3125 -68.578125 C 73.394531 -70.066406 74.890625 -71.039062 76.796875 -71.5 C 78.710938 -71.96875 80.769531 -71.992188 82.96875 -71.578125 C 85.164062 -71.171875 87.226562 -70.4375 89.15625 -69.375 C 91.082031 -68.320312 92.65625 -67.050781 93.875 -65.5625 C 95.101562 -64.082031 95.6875 -62.5 95.625 -60.8125 C 95.550781 -59.25 95.328125 -57.257812 94.953125 -54.84375 C 94.578125 -52.4375 94.019531 -49.722656 93.28125 -46.703125 C 96.820312 -50.222656 100.003906 -53.6875 102.828125 -57.09375 C 105.660156 -60.5 108.191406 -63.101562 110.421875 -64.90625 C 111.671875 -65.925781 113.0625 -66.410156 114.59375 -66.359375 C 116.125 -66.316406 117.59375 -65.875 119 -65.03125 C 120.414062 -64.195312 121.570312 -63.082031 122.46875 -61.6875 C 123.375 -60.289062 123.828125 -58.765625 123.828125 -57.109375 C 123.828125 -55.460938 123.203125 -53.820312 121.953125 -52.1875 C 119.484375 -49.101562 116.632812 -45.691406 113.40625 -41.953125 C 110.1875 -38.222656 106.757812 -34.363281 103.125 -30.375 C 99.5 -26.382812 95.835938 -22.390625 92.140625 -18.390625 C 88.441406 -14.390625 84.875 -10.507812 81.4375 -6.75 C 79.832031 -2.082031 78.132812 2.546875 76.34375 7.140625 C 74.5625 11.734375 72.78125 16.097656 71 20.234375 C 68.59375 25.921875 65.988281 30.601562 63.1875 34.28125 C 60.394531 37.96875 57.316406 40.347656 53.953125 41.421875 C 51.722656 42.109375 49.289062 42.101562 46.65625 41.40625 C 44.019531 40.707031 41.410156 39.535156 38.828125 37.890625 C 36.253906 36.242188 33.9375 34.320312 31.875 32.125 C 29.820312 29.925781 28.273438 27.671875 27.234375 25.359375 C 26.191406 23.046875 25.894531 20.894531 26.34375 18.90625 C 27.351562 15.113281 30.382812 11.035156 35.4375 6.671875 C 38.382812 3.390625 42.054688 -0.425781 46.453125 -4.78125 C 50.847656 -9.132812 55.613281 -13.75 60.75 -18.625 C 60.988281 -19.21875 61.222656 -19.851562 61.453125 -20.53125 C 61.691406 -21.21875 61.898438 -21.882812 62.078125 -22.53125 C 59.484375 -19.550781 56.664062 -17.03125 53.625 -14.96875 C 50.59375 -12.90625 47.203125 -11.328125 43.453125 -10.234375 C 37.054688 -8.328125 31.078125 -7.992188 25.515625 -9.234375 C 19.960938 -10.472656 15.015625 -12.890625 10.671875 -16.484375 C 6.328125 -20.078125 2.78125 -24.429688 0.03125 -29.546875 Z M 0.03125 -29.546875 "/></g></g><g transform="translate(195.982619, 224.451052)"><g><path d="M 29.046875 -99.78125 C 28.921875 -100.894531 28.285156 -101.40625 27.140625 -101.3125 C 26.003906 -101.21875 24.535156 -100.707031 22.734375 -99.78125 C 20.941406 -98.851562 19 -97.695312 16.90625 -96.3125 C 14.820312 -94.925781 12.726562 -93.472656 10.625 -91.953125 C 8.519531 -90.429688 6.582031 -89.0625 4.8125 -87.84375 C 3.050781 -86.625 1.613281 -85.726562 0.5 -85.15625 C -2.082031 -83.8125 -4.488281 -83.304688 -6.71875 -83.640625 C -8.945312 -83.984375 -10.925781 -84.945312 -12.65625 -86.53125 C -14.394531 -88.113281 -15.847656 -90.066406 -17.015625 -92.390625 C -18.179688 -94.722656 -19.035156 -97.195312 -19.578125 -99.8125 C -20.128906 -102.4375 -20.304688 -104.972656 -20.109375 -107.421875 C -19.921875 -109.878906 -19.335938 -112.007812 -18.359375 -113.8125 C -17.210938 -115.851562 -15.296875 -117.976562 -12.609375 -120.1875 C -9.929688 -122.394531 -6.78125 -124.5625 -3.15625 -126.6875 C 0.457031 -128.8125 4.269531 -130.753906 8.28125 -132.515625 C 12.289062 -134.273438 16.203125 -135.710938 20.015625 -136.828125 C 24.597656 -138.210938 28.90625 -139.117188 32.9375 -139.546875 C 36.96875 -139.972656 40.695312 -139.941406 44.125 -139.453125 C 48.875 -138.734375 52.410156 -137.054688 54.734375 -134.421875 C 57.066406 -131.785156 58.476562 -128.546875 58.96875 -124.703125 C 59.46875 -120.867188 59.3125 -116.722656 58.5 -112.265625 C 60.375 -116.148438 62.523438 -119.601562 64.953125 -122.625 C 67.390625 -125.644531 69.460938 -128.679688 71.171875 -131.734375 C 72.835938 -134.671875 74.914062 -136.96875 77.40625 -138.625 C 79.90625 -140.28125 82.53125 -141.460938 85.28125 -142.171875 C 88.039062 -142.890625 90.648438 -143.242188 93.109375 -143.234375 C 95.578125 -143.234375 97.617188 -142.984375 99.234375 -142.484375 C 100.003906 -142.265625 101.164062 -141.789062 102.71875 -141.0625 C 104.269531 -140.332031 105.921875 -139.363281 107.671875 -138.15625 C 109.429688 -136.945312 111.0625 -135.460938 112.5625 -133.703125 C 114.070312 -131.941406 115.238281 -129.894531 116.0625 -127.5625 C 116.882812 -125.226562 117.128906 -122.566406 116.796875 -119.578125 C 116.421875 -116.734375 115.828125 -113.925781 115.015625 -111.15625 C 114.210938 -108.382812 113.300781 -105.382812 112.28125 -102.15625 C 114.5625 -106.894531 116.875 -110.847656 119.21875 -114.015625 C 121.570312 -117.179688 124.066406 -119.878906 126.703125 -122.109375 C 128.566406 -123.691406 130.757812 -124.65625 133.28125 -125 C 135.800781 -125.351562 138.378906 -125.160156 141.015625 -124.421875 C 143.648438 -123.691406 146.15625 -122.476562 148.53125 -120.78125 C 150.914062 -119.082031 152.925781 -117 154.5625 -114.53125 C 156.207031 -112.070312 157.285156 -109.28125 157.796875 -106.15625 C 158.304688 -103.039062 158.015625 -99.710938 156.921875 -96.171875 C 156.160156 -93.960938 155.117188 -91.410156 153.796875 -88.515625 C 152.472656 -85.617188 151.046875 -82.554688 149.515625 -79.328125 C 147.984375 -76.097656 146.550781 -72.785156 145.21875 -69.390625 C 143.882812 -66.003906 142.867188 -62.6875 142.171875 -59.4375 C 141.410156 -55.664062 141.316406 -53.015625 141.890625 -51.484375 C 142.472656 -49.960938 143.398438 -49.210938 144.671875 -49.234375 C 145.953125 -49.253906 147.195312 -49.671875 148.40625 -50.484375 C 149.738281 -51.453125 151.160156 -52.832031 152.671875 -54.625 C 154.179688 -56.414062 155.675781 -58.34375 157.15625 -60.40625 C 158.632812 -62.476562 159.976562 -64.421875 161.1875 -66.234375 C 162.394531 -68.054688 163.3125 -69.441406 163.9375 -70.390625 C 164.582031 -71.273438 165.523438 -71.894531 166.765625 -72.25 C 168.003906 -72.601562 169.3125 -72.640625 170.6875 -72.359375 C 172.0625 -72.078125 173.253906 -71.429688 174.265625 -70.421875 C 175.273438 -69.410156 175.925781 -68.003906 176.21875 -66.203125 C 176.519531 -64.398438 176.203125 -62.140625 175.265625 -59.421875 C 174.390625 -56.765625 173.144531 -53.582031 171.53125 -49.875 C 169.925781 -46.175781 168.164062 -42.328125 166.25 -38.328125 C 164.332031 -34.335938 162.40625 -30.535156 160.46875 -26.921875 C 158.539062 -23.316406 156.742188 -20.300781 155.078125 -17.875 C 153.222656 -14.96875 150.894531 -12.796875 148.09375 -11.359375 C 145.300781 -9.929688 142.421875 -9.113281 139.453125 -8.90625 C 136.484375 -8.695312 133.835938 -8.925781 131.515625 -9.59375 C 128.035156 -10.632812 124.867188 -12.332031 122.015625 -14.6875 C 119.160156 -17.050781 116.738281 -19.832031 114.75 -23.03125 C 112.769531 -26.238281 111.289062 -29.71875 110.3125 -33.46875 C 109.332031 -37.226562 108.96875 -41.023438 109.21875 -44.859375 C 109.425781 -48.503906 110.054688 -52.566406 111.109375 -57.046875 C 112.160156 -61.523438 113.457031 -66.015625 115 -70.515625 C 116.550781 -75.023438 118.253906 -79.160156 120.109375 -82.921875 C 121.960938 -86.691406 123.796875 -89.707031 125.609375 -91.96875 C 125.265625 -91.738281 124.65625 -91.046875 123.78125 -89.890625 C 122.90625 -88.734375 121.894531 -87.296875 120.75 -85.578125 C 119.613281 -83.859375 118.445312 -82.039062 117.25 -80.125 C 116.0625 -78.21875 114.957031 -76.378906 113.9375 -74.609375 C 112.925781 -72.847656 112.117188 -71.34375 111.515625 -70.09375 C 110.191406 -67.445312 108.753906 -64.394531 107.203125 -60.9375 C 105.660156 -57.488281 104.109375 -53.851562 102.546875 -50.03125 C 100.992188 -46.21875 99.492188 -42.421875 98.046875 -38.640625 C 96.597656 -34.867188 95.28125 -31.304688 94.09375 -27.953125 C 92.914062 -24.609375 91.9375 -21.691406 91.15625 -19.203125 C 90.375 -16.722656 89.898438 -14.882812 89.734375 -13.6875 C 89.390625 -11.144531 88.269531 -9.160156 86.375 -7.734375 C 84.476562 -6.304688 82.132812 -5.398438 79.34375 -5.015625 C 76.550781 -4.640625 73.640625 -4.71875 70.609375 -5.25 C 67.585938 -5.789062 64.722656 -6.71875 62.015625 -8.03125 C 59.316406 -9.34375 57.085938 -11.019531 55.328125 -13.0625 C 53.566406 -15.113281 52.632812 -17.441406 52.53125 -20.046875 C 52.507812 -21.421875 52.859375 -23.613281 53.578125 -26.625 C 54.296875 -29.632812 55.3125 -33.207031 56.625 -37.34375 C 57.9375 -41.476562 59.414062 -45.925781 61.0625 -50.6875 C 62.707031 -55.457031 64.429688 -60.328125 66.234375 -65.296875 C 68.035156 -70.273438 69.796875 -75.09375 71.515625 -79.75 C 73.234375 -84.40625 74.835938 -88.695312 76.328125 -92.625 C 77.816406 -96.5625 79.035156 -99.832031 79.984375 -102.4375 C 80.378906 -103.425781 80.644531 -104.300781 80.78125 -105.0625 C 80.914062 -105.820312 80.867188 -106.234375 80.640625 -106.296875 C 80.410156 -106.367188 79.890625 -105.894531 79.078125 -104.875 C 76.898438 -102 74.570312 -98.425781 72.09375 -94.15625 C 69.613281 -89.894531 67.128906 -85.238281 64.640625 -80.1875 C 62.148438 -75.144531 59.722656 -69.976562 57.359375 -64.6875 C 55.003906 -59.394531 52.796875 -54.257812 50.734375 -49.28125 C 48.671875 -44.3125 46.875 -39.765625 45.34375 -35.640625 C 43.820312 -31.515625 42.65625 -28.097656 41.84375 -25.390625 C 40.757812 -21.710938 39.726562 -18.132812 38.75 -14.65625 C 37.769531 -11.175781 36.8125 -8.296875 35.875 -6.015625 C 34.757812 -4.328125 33.117188 -3.144531 30.953125 -2.46875 C 28.785156 -1.789062 26.335938 -1.515625 23.609375 -1.640625 C 20.890625 -1.765625 18.125 -2.242188 15.3125 -3.078125 C 12.5 -3.921875 9.84375 -5.039062 7.34375 -6.4375 C 4.851562 -7.84375 2.742188 -9.441406 1.015625 -11.234375 C -0.710938 -13.035156 -1.835938 -14.984375 -2.359375 -17.078125 C -2.878906 -19.171875 -2.546875 -21.316406 -1.359375 -23.515625 C 0.0976562 -26.171875 1.867188 -29.546875 3.953125 -33.640625 C 6.046875 -37.742188 8.296875 -42.253906 10.703125 -47.171875 C 13.117188 -52.085938 15.453125 -57.148438 17.703125 -62.359375 C 19.953125 -67.578125 21.988281 -72.59375 23.8125 -77.40625 C 25.644531 -82.21875 27.039062 -86.582031 28 -90.5 C 28.957031 -94.414062 29.304688 -97.507812 29.046875 -99.78125 Z M 29.046875 -99.78125 "/></g></g></g><g fill="#ff9149" fill-opacity="1"><g transform="translate(366.091106, 205.266453)"><g/></g></g><path stroke-linecap="butt" transform="matrix(2.168627, -0.244575, 0.244575, 2.168627, -170.992851, 282.573615)" fill="none" stroke-linejoin="miter" d="M 163.674335 30.111557 C 162.578404 30.166284 161.507788 30.092374 160.466245 29.88845 C 159.422723 29.686104 158.49342 29.381359 157.672801 28.975393 C 156.854161 28.567848 156.207781 28.102277 155.734262 27.573343 C 155.098178 26.856757 154.642044 26.093819 154.363478 25.289665 C 154.086891 24.483932 153.958332 23.691292 153.9776 22.913521 C 153.998848 22.134173 154.139585 21.413332 154.403569 20.749621 C 154.667553 20.085909 155.019332 19.522162 155.459308 19.054822 C 155.901062 18.587682 156.40741 18.266524 156.983886 18.09017 C 157.558584 17.913616 158.164376 17.940507 158.80126 18.170845 C 160.072702 18.604238 161.094748 18.885218 161.867396 19.013785 C 162.638266 19.142152 163.24161 19.094916 163.67387 18.871676 C 164.107909 18.648637 164.446971 18.245569 164.689077 17.664049 C 164.824814 17.33892 164.825147 17.016533 164.689876 16.698667 C 164.554606 16.3808 164.327221 16.065154 164.009299 15.753707 C 163.691378 15.442261 163.32661 15.130934 162.913218 14.819528 C 162.499825 14.508122 162.090793 14.190002 161.68414 13.866747 C 160.886041 13.229157 160.266419 12.478403 159.825677 11.610927 C 159.386512 10.745431 159.129103 9.817574 159.055025 8.829337 C 158.980948 7.8411 159.078448 6.848798 159.349105 5.854408 C 159.619761 4.860018 160.059535 3.915323 160.668225 3.0221 C 161.278894 2.127299 162.056796 1.346825 163.004309 0.675542 C 163.951622 0.00603836 165.062329 -0.499137 166.33425 -0.836626 C 167.60815 -1.175694 169.043358 -1.284021 170.639874 -1.161609 C 171.83224 -1.081173 172.87147 -0.792851 173.757765 -0.298421 C 174.64406 0.196009 175.385845 0.821844 175.981141 1.580662 C 176.576637 2.337702 177.016256 3.167225 177.300198 4.067452 C 177.585919 4.96788 177.714492 5.8722 177.686117 6.778634 C 177.65952 7.685268 177.473703 8.534318 177.128464 9.327562 C 176.783425 10.119027 176.271382 10.778179 175.595691 11.307197 C 175.026852 11.767209 174.424405 12.109952 173.788552 12.333647 C 173.15112 12.555363 172.52876 12.627473 171.920093 12.54622 C 171.309648 12.464766 170.748348 12.187114 170.234416 11.713064 C 169.801391 11.320188 169.496161 10.864271 169.320904 10.341956 C 169.143667 9.821219 169.106996 9.283912 169.209312 8.728055 C 169.30965 8.173777 169.557586 7.652357 169.949365 7.165171 C 170.003834 7.097462 170.082227 7.025247 170.182365 6.951881 C 170.284482 6.876938 170.300971 6.826561 170.233811 6.799173 C 170.057258 6.703609 169.799999 6.764658 169.462033 6.982321 C 169.124267 7.198205 168.772487 7.522385 168.406492 7.95664 C 168.040697 8.389116 167.721842 8.884526 167.452107 9.439514 C 167.180593 9.994301 167.02211 10.56904 166.974677 11.16531 C 166.927445 11.759801 167.059534 12.329484 167.371345 12.870802 C 167.559774 13.196465 167.875783 13.588752 168.315615 14.049042 C 168.755446 14.509332 169.228791 15.023836 169.73565 15.592555 C 170.244287 16.161475 170.707803 16.763132 171.127776 17.399506 C 171.547749 18.03588 171.83149 18.698319 171.980576 19.388802 C 172.237505 20.608408 172.247285 21.751506 172.011292 22.821855 C 171.773721 23.890225 171.365134 24.861854 170.781973 25.736341 C 170.200792 26.60925 169.510097 27.367136 168.711667 28.010201 C 167.911459 28.653066 167.076894 29.153359 166.202438 29.512257 C 165.329759 29.871356 164.487584 30.071783 163.674335 30.111557 Z M 185.195905 0.179191 C 186.143017 -0.728102 187.04355 -1.318223 187.895327 -1.587815 C 188.749082 -1.858986 189.514482 -1.889746 190.191526 -1.680098 C 190.868571 -1.470449 191.426126 -1.07974 191.866373 -0.511328 C 192.306619 0.0570835 192.589959 0.72308 192.719748 1.48884 C 192.847959 2.252622 192.793466 3.055239 192.55647 3.894915 C 192.319473 4.73459 191.856617 5.532582 191.165922 6.290469 C 190.665513 6.84646 190.106477 7.475094 189.49019 8.18013 C 188.874104 8.883387 188.23424 9.621788 187.5708 10.393556 C 186.907359 11.165324 186.25086 11.923464 185.6013 12.667978 C 184.951741 13.412491 184.331322 14.106253 183.7436 14.749665 C 183.1541 15.392876 182.628991 15.94428 182.170052 16.404078 C 182.047689 16.770343 181.894888 17.134976 181.713027 17.501736 C 181.529589 17.866516 181.343061 18.306601 181.153645 18.820212 C 181.383797 18.536352 181.688583 18.181655 182.068206 17.75434 C 182.447628 17.328805 182.877106 16.874691 183.358218 16.393977 C 183.837551 15.913063 184.341958 15.449387 184.869662 15.002748 C 185.66852 14.339918 186.376293 13.893773 186.993183 13.662536 C 187.608094 13.432876 188.137163 13.35745 188.576432 13.439412 C 189.015701 13.521375 189.392932 13.706218 189.704166 13.997097 C 190.015201 14.289754 190.264705 14.616901 190.454057 14.982295 C 190.699015 15.429614 190.928714 15.900429 191.144933 16.394941 C 191.361352 16.887675 191.591854 17.351375 191.836437 17.786043 C 192.079443 18.218731 192.350063 18.566272 192.648098 18.830444 C 192.946134 19.094617 193.291028 19.230781 193.682983 19.237159 C 194.076715 19.243737 194.536377 19.065017 195.063948 18.699419 C 195.593297 18.334023 196.202683 17.738085 196.892107 16.911608 C 197.162846 16.587294 197.437504 16.40392 197.714101 16.363065 C 197.992477 16.322409 198.235494 16.387643 198.445132 16.557187 C 198.654971 16.724953 198.808938 16.972877 198.901896 17.298581 C 198.996833 17.622706 199.004938 17.98207 198.922855 18.374492 C 198.719372 19.268382 198.432092 20.154623 198.060816 21.034993 C 197.687761 21.915163 197.246997 22.740864 196.740304 23.512297 C 196.231832 24.283529 195.677476 24.950518 195.075458 25.513063 C 194.471862 26.073628 193.840248 26.48333 193.175282 26.741568 C 192.512294 26.998228 191.838955 27.059185 191.155265 26.92444 C 190.471775 26.787915 189.794423 26.405311 189.124987 25.776828 C 188.453973 25.146365 187.807765 24.21609 187.184785 22.984022 C 187.010036 22.632883 186.785099 22.391364 186.514907 22.263625 C 186.244916 22.134106 185.895568 22.181168 185.468644 22.405009 C 185.043498 22.629051 184.501338 23.092072 183.84552 23.796252 C 183.187924 24.500231 182.371696 25.508745 181.396836 26.821793 C 181.031938 27.310209 180.591774 27.65144 180.077924 27.847466 C 179.564074 28.043491 179.018396 28.122448 178.443068 28.08098 C 177.867541 28.04129 177.315897 27.901623 176.787736 27.665535 C 176.259776 27.427668 175.806251 27.120742 175.427561 26.741199 C 174.884903 26.186455 174.466668 25.45481 174.16732 24.547442 C 173.869751 23.640274 173.771561 22.530435 173.872752 21.217925 C 173.975921 19.903837 174.344534 18.360304 174.980369 16.587528 C 175.412907 15.355617 175.935606 14.106856 176.544911 12.840842 C 177.154215 11.574829 177.813494 10.328862 178.524528 9.103142 C 179.235362 7.8792 179.972393 6.71045 180.737001 5.600648 C 181.503387 4.491047 182.264878 3.472758 183.021676 2.544002 C 183.780052 1.617226 184.504795 0.828955 185.195905 0.179191 Z M 209.436363 11.510384 C 210.262237 11.72601 210.898053 12.125545 211.345588 12.709189 C 211.791545 13.290853 212.083523 13.992048 212.218167 14.810592 C 212.354589 15.629337 212.347612 16.505761 212.197233 17.439864 C 212.508856 17.615506 212.95354 17.649446 213.52773 17.541282 C 214.103699 17.433318 214.681914 17.161694 215.263953 16.728388 C 215.602775 16.471194 215.923918 16.386728 216.22916 16.475191 C 216.534403 16.563653 216.777782 16.769425 216.960875 17.094486 C 217.14219 17.419347 217.230508 17.802167 217.22405 18.242746 C 217.217793 18.681546 217.071197 19.11893 216.788223 19.55174 C 216.299516 20.3234 215.679953 20.977631 214.929934 21.510875 C 214.177935 22.045698 213.379131 22.436544 212.53392 22.679859 C 211.686931 22.922972 210.864709 23.010369 210.065274 22.943626 C 209.524426 23.810276 208.905625 24.601488 208.206893 25.318841 C 207.509939 26.036394 206.756457 26.632291 205.942888 27.106132 C 205.131098 27.580173 204.278266 27.891076 203.384189 28.040617 C 202.490113 28.190159 201.577421 28.121451 200.643933 27.837849 C 199.37003 27.458216 198.36565 26.892828 197.627234 26.141285 C 196.888819 25.389743 196.377707 24.523337 196.093898 23.542068 C 195.81009 22.560799 195.719282 21.529247 195.819899 20.445431 C 195.922293 19.361816 196.175671 18.29703 196.582212 17.247717 C 196.986974 16.198202 197.515532 15.232899 198.165907 14.353383 C 198.814503 13.473667 199.547256 12.742139 200.358631 12.159976 C 201.171785 11.578013 202.023521 11.212949 202.917597 11.063407 C 203.594373 10.956005 204.186951 11.084078 204.695133 11.449405 C 205.201536 11.814531 205.570396 12.281226 205.801513 12.85127 C 206.370272 12.200316 207.107079 11.768253 208.014314 11.549947 C 208.475902 11.402065 208.949325 11.38881 209.436363 11.510384 Z M 204.583379 17.135971 C 204.203703 17.595702 203.927013 18.052637 203.749754 18.506376 C 203.574272 18.960315 203.486452 19.355693 203.486092 19.694288 C 203.485732 20.032884 203.558082 20.269803 203.699584 20.404644 C 203.841086 20.539485 204.045281 20.533694 204.308812 20.38509 C 204.572343 20.236487 204.873546 19.897596 205.21242 19.368419 L 205.1721 19.24679 C 205.008398 18.909506 204.879894 18.563582 204.786187 18.212577 C 204.690902 17.859593 204.623299 17.500724 204.583379 17.135971 Z M 229.170906 10.839601 C 230.0373 10.93551 230.730299 11.179381 231.25168 11.571414 C 231.773061 11.963447 232.157876 12.464364 232.409681 13.074568 C 232.659908 13.682792 232.798925 14.366735 232.825152 15.124419 C 232.853158 15.882303 232.806007 16.667736 232.683698 17.480718 C 233.293407 17.169416 233.857366 16.912395 234.379334 16.708278 C 234.9011 16.505941 235.315963 16.405025 235.627678 16.404155 C 236.047314 16.404649 236.385923 16.516688 236.643505 16.740273 C 236.901287 16.96208 237.058957 17.241043 237.120676 17.57223 C 237.180615 17.903215 237.136966 18.242332 236.988151 18.587601 C 236.839335 18.93287 236.568449 19.226546 236.177071 19.470608 C 235.892344 19.647442 235.515368 19.907538 235.049502 20.253076 C 234.581856 20.598412 234.063928 20.990315 233.495516 21.430561 C 232.927105 21.870808 232.355136 22.310654 231.779609 22.750098 C 231.203883 23.191321 230.672902 23.587155 230.184689 23.939178 C 229.873818 24.507539 229.488419 25.081905 229.02829 25.664054 C 228.568161 26.246203 228.060491 26.770753 227.505279 27.237706 C 226.949866 27.706438 226.353504 28.075084 225.717771 28.345626 C 224.98749 28.655939 224.347664 28.771111 223.798294 28.691141 C 223.250904 28.609593 222.799398 28.39656 222.447535 28.050665 C 222.095673 27.704769 221.851865 27.279195 221.716313 26.772165 C 221.580961 26.263357 221.568389 25.735972 221.677017 25.188033 C 221.785846 24.638315 222.028822 24.128944 222.408324 23.654784 C 222.69277 23.288786 223.037462 22.947595 223.442601 22.629432 C 223.84972 22.309692 224.259767 22.011897 224.670964 21.735847 C 225.084141 21.458218 225.439946 21.210145 225.738181 20.993405 C 225.927463 20.560836 226.106943 20.199211 226.276822 19.906753 C 226.444721 19.615872 226.584336 19.336212 226.692511 19.063814 C 226.800485 18.793194 226.811356 18.553052 226.723347 18.343187 C 226.635337 18.133322 226.482388 17.988184 226.266277 17.907972 C 226.048588 17.825781 225.792385 17.845521 225.49391 17.968569 C 225.197414 18.090038 224.892787 18.347486 224.580231 18.739134 C 223.889576 19.592491 223.166238 20.607878 222.408438 21.785094 C 221.648659 22.963888 220.897439 24.226505 220.152999 25.572744 C 219.408358 26.920762 218.698689 28.278128 218.020433 29.64444 C 217.343755 31.012731 216.73853 32.322435 216.202778 33.575128 C 215.669006 34.826243 215.245174 35.933048 214.93504 36.894166 C 214.718209 37.491145 214.358151 37.920665 213.858223 38.184907 C 213.356516 38.448949 212.79931 38.566233 212.182646 38.539917 C 211.566183 38.511822 210.964337 38.370095 210.375528 38.112757 C 209.78672 37.855419 209.289184 37.507505 208.883119 37.067234 C 208.477055 36.626964 208.226266 36.119547 208.130753 35.544982 C 208.037219 34.96884 208.185486 34.356923 208.577732 33.705876 C 208.781859 33.381255 209.082553 32.871188 209.481793 32.174097 C 209.881234 31.475227 210.337578 30.671097 210.853204 29.756571 C 211.366851 28.843623 211.898966 27.87872 212.44757 26.863441 C 212.994396 25.847961 213.517069 24.854975 214.009854 23.887438 C 214.504417 22.920101 214.930858 22.029741 215.289176 21.216357 C 215.649072 20.404952 215.896046 19.748329 216.031875 19.246687 C 216.085006 19.031125 216.06413 18.864856 215.970825 18.749861 C 215.875742 18.634665 215.746235 18.537201 215.584286 18.455893 C 215.422337 18.374585 215.255453 18.289117 215.086991 18.201671 C 214.91675 18.114023 214.785291 18.00193 214.690635 17.866968 C 214.460696 17.542028 214.542057 17.108095 214.934518 16.566948 C 215.367392 15.970918 215.831452 15.401821 216.32472 14.861236 C 216.819967 14.319073 217.286247 13.84209 217.72732 13.428912 C 218.166614 13.015532 218.521924 12.707961 218.793252 12.506199 C 219.442785 12.017461 220.147457 11.774509 220.904111 11.773383 C 221.662343 11.774236 222.366641 11.997766 223.017007 12.443974 C 223.342002 12.660752 223.578467 12.863943 223.728181 13.053748 C 223.876115 13.243352 223.995672 13.381122 224.082892 13.470214 C 224.170313 13.557527 224.283369 13.561271 224.418706 13.479266 C 224.553841 13.39904 224.764093 13.195794 225.047483 12.871106 C 225.697591 12.153673 226.388313 11.619145 227.119851 11.265744 C 227.84941 10.91392 228.533554 10.773125 229.170906 10.839601 Z M 229.170906 10.839601 " stroke="#ffffff" stroke-width="6.93333" stroke-opacity="1" stroke-miterlimit="4"/><g fill="#ff9149" fill-opacity="1"><g transform="translate(173.585064, 305.206483)"><g><path d="M 17.734375 2.640625 C 15.359375 3.015625 13.015625 3.109375 10.703125 2.921875 C 8.398438 2.742188 6.3125 2.316406 4.4375 1.640625 C 2.5625 0.960938 1.046875 0.101562 -0.109375 -0.9375 C -1.660156 -2.332031 -2.832031 -3.867188 -3.625 -5.546875 C -4.425781 -7.222656 -4.898438 -8.90625 -5.046875 -10.59375 C -5.191406 -12.289062 -5.054688 -13.890625 -4.640625 -15.390625 C -4.234375 -16.898438 -3.609375 -18.210938 -2.765625 -19.328125 C -1.929688 -20.453125 -0.914062 -21.273438 0.28125 -21.796875 C 1.488281 -22.316406 2.804688 -22.40625 4.234375 -22.0625 C 7.109375 -21.4375 9.394531 -21.078125 11.09375 -20.984375 C 12.800781 -20.890625 14.097656 -21.140625 14.984375 -21.734375 C 15.867188 -22.328125 16.503906 -23.285156 16.890625 -24.609375 C 17.109375 -25.335938 17.03125 -26.03125 16.65625 -26.6875 C 16.28125 -27.351562 15.707031 -27.984375 14.9375 -28.578125 C 14.175781 -29.179688 13.304688 -29.769531 12.328125 -30.34375 C 11.359375 -30.914062 10.398438 -31.503906 9.453125 -32.109375 C 7.566406 -33.285156 6.035156 -34.757812 4.859375 -36.53125 C 3.691406 -38.3125 2.90625 -40.265625 2.5 -42.390625 C 2.101562 -44.515625 2.078125 -46.6875 2.421875 -48.90625 C 2.765625 -51.132812 3.488281 -53.289062 4.59375 -55.375 C 5.695312 -57.46875 7.191406 -59.351562 9.078125 -61.03125 C 10.972656 -62.71875 13.257812 -64.082031 15.9375 -65.125 C 18.613281 -66.175781 21.703125 -66.757812 25.203125 -66.875 C 27.796875 -66.988281 30.113281 -66.617188 32.15625 -65.765625 C 34.207031 -64.921875 35.96875 -63.75 37.4375 -62.25 C 38.914062 -60.75 40.078125 -59.054688 40.921875 -57.171875 C 41.765625 -55.285156 42.265625 -53.359375 42.421875 -51.390625 C 42.585938 -49.421875 42.390625 -47.535156 41.828125 -45.734375 C 41.273438 -43.929688 40.332031 -42.375 39 -41.0625 C 37.875 -39.925781 36.644531 -39.039062 35.3125 -38.40625 C 33.988281 -37.769531 32.65625 -37.460938 31.3125 -37.484375 C 29.976562 -37.503906 28.691406 -37.96875 27.453125 -38.875 C 26.421875 -39.613281 25.648438 -40.523438 25.140625 -41.609375 C 24.628906 -42.703125 24.414062 -43.859375 24.5 -45.078125 C 24.582031 -46.304688 24.988281 -47.5 25.71875 -48.65625 C 25.820312 -48.820312 25.972656 -48.992188 26.171875 -49.171875 C 26.378906 -49.359375 26.40625 -49.472656 26.25 -49.515625 C 25.84375 -49.679688 25.300781 -49.488281 24.625 -48.9375 C 23.945312 -48.382812 23.257812 -47.59375 22.5625 -46.5625 C 21.875 -45.539062 21.304688 -44.390625 20.859375 -43.109375 C 20.421875 -41.835938 20.21875 -40.550781 20.25 -39.25 C 20.289062 -37.957031 20.71875 -36.757812 21.53125 -35.65625 C 22.03125 -35 22.804688 -34.222656 23.859375 -33.328125 C 24.921875 -32.429688 26.070312 -31.429688 27.3125 -30.328125 C 28.5625 -29.222656 29.71875 -28.03125 30.78125 -26.75 C 31.851562 -25.476562 32.632812 -24.109375 33.125 -22.640625 C 33.976562 -20.054688 34.28125 -17.578125 34.03125 -15.203125 C 33.78125 -12.828125 33.128906 -10.617188 32.078125 -8.578125 C 31.035156 -6.546875 29.722656 -4.734375 28.140625 -3.140625 C 26.566406 -1.554688 24.875 -0.269531 23.0625 0.71875 C 21.257812 1.707031 19.484375 2.347656 17.734375 2.640625 Z M 17.734375 2.640625 "/></g></g></g><g fill="#ff9149" fill-opacity="1"><g transform="translate(215.851059, 300.439783)"><g><path d="M 14.828125 -62.78125 C 16.648438 -64.96875 18.457031 -66.457031 20.25 -67.25 C 22.039062 -68.050781 23.691406 -68.304688 25.203125 -68.015625 C 26.710938 -67.722656 28.015625 -67.015625 29.109375 -65.890625 C 30.210938 -64.773438 30.992188 -63.40625 31.453125 -61.78125 C 31.921875 -60.15625 32 -58.398438 31.6875 -56.515625 C 31.375 -54.640625 30.566406 -52.796875 29.265625 -50.984375 C 28.316406 -49.660156 27.257812 -48.15625 26.09375 -46.46875 C 24.925781 -44.789062 23.71875 -43.035156 22.46875 -41.203125 C 21.21875 -39.378906 19.976562 -37.570312 18.75 -35.78125 C 17.53125 -34 16.359375 -32.335938 15.234375 -30.796875 C 14.109375 -29.265625 13.101562 -27.953125 12.21875 -26.859375 C 12.050781 -26.023438 11.8125 -25.1875 11.5 -24.34375 C 11.195312 -23.507812 10.898438 -22.515625 10.609375 -21.359375 C 11.035156 -22.035156 11.609375 -22.878906 12.328125 -23.890625 C 13.046875 -24.898438 13.867188 -25.988281 14.796875 -27.15625 C 15.722656 -28.320312 16.707031 -29.453125 17.75 -30.546875 C 19.3125 -32.179688 20.734375 -33.320312 22.015625 -33.96875 C 23.296875 -34.625 24.421875 -34.914062 25.390625 -34.84375 C 26.367188 -34.769531 27.234375 -34.457031 27.984375 -33.90625 C 28.734375 -33.351562 29.351562 -32.703125 29.84375 -31.953125 C 30.476562 -31.046875 31.09375 -30.078125 31.6875 -29.046875 C 32.28125 -28.023438 32.890625 -27.078125 33.515625 -26.203125 C 34.148438 -25.335938 34.820312 -24.648438 35.53125 -24.140625 C 36.25 -23.640625 37.035156 -23.425781 37.890625 -23.5 C 38.742188 -23.582031 39.695312 -24.085938 40.75 -25.015625 C 41.8125 -25.941406 42.984375 -27.382812 44.265625 -29.34375 C 44.785156 -30.113281 45.335938 -30.578125 45.921875 -30.734375 C 46.515625 -30.890625 47.054688 -30.804688 47.546875 -30.484375 C 48.046875 -30.171875 48.4375 -29.675781 48.71875 -29 C 49.007812 -28.320312 49.113281 -27.546875 49.03125 -26.671875 C 48.8125 -24.679688 48.40625 -22.6875 47.8125 -20.6875 C 47.226562 -18.695312 46.476562 -16.800781 45.5625 -15 C 44.65625 -13.195312 43.613281 -11.613281 42.4375 -10.25 C 41.257812 -8.894531 39.984375 -7.851562 38.609375 -7.125 C 37.234375 -6.394531 35.789062 -6.09375 34.28125 -6.21875 C 32.769531 -6.351562 31.207031 -7.019531 29.59375 -8.21875 C 27.988281 -9.414062 26.359375 -11.28125 24.703125 -13.8125 C 24.242188 -14.519531 23.703125 -14.976562 23.078125 -15.1875 C 22.453125 -15.40625 21.707031 -15.21875 20.84375 -14.625 C 19.988281 -14.039062 18.929688 -12.90625 17.671875 -11.21875 C 16.410156 -9.53125 14.890625 -7.148438 13.109375 -4.078125 C 12.429688 -2.921875 11.554688 -2.066406 10.484375 -1.515625 C 9.410156 -0.960938 8.242188 -0.660156 6.984375 -0.609375 C 5.734375 -0.554688 4.503906 -0.71875 3.296875 -1.09375 C 2.097656 -1.476562 1.039062 -2.039062 0.125 -2.78125 C -1.175781 -3.84375 -2.257812 -5.320312 -3.125 -7.21875 C -4 -9.113281 -4.484375 -11.492188 -4.578125 -14.359375 C -4.679688 -17.234375 -4.265625 -20.675781 -3.328125 -24.6875 C -2.679688 -27.457031 -1.851562 -30.289062 -0.84375 -33.1875 C 0.164062 -36.09375 1.289062 -38.957031 2.53125 -41.78125 C 3.769531 -44.613281 5.082031 -47.328125 6.46875 -49.921875 C 7.851562 -52.515625 9.253906 -54.910156 10.671875 -57.109375 C 12.097656 -59.304688 13.484375 -61.195312 14.828125 -62.78125 Z M 14.828125 -62.78125 "/></g></g></g><g fill="#ff9149" fill-opacity="1"><g transform="translate(262.916024, 295.131862)"><g><path d="M 23.09375 -38.8125 C 24.9375 -38.550781 26.410156 -37.84375 27.515625 -36.6875 C 28.628906 -35.53125 29.429688 -34.078125 29.921875 -32.328125 C 30.421875 -30.585938 30.628906 -28.691406 30.546875 -26.640625 C 31.253906 -26.328125 32.21875 -26.359375 33.4375 -26.734375 C 34.664062 -27.109375 35.859375 -27.835938 37.015625 -28.921875 C 37.679688 -29.566406 38.359375 -29.828125 39.046875 -29.703125 C 39.734375 -29.585938 40.3125 -29.203125 40.78125 -28.546875 C 41.25 -27.890625 41.53125 -27.082031 41.625 -26.125 C 41.726562 -25.175781 41.523438 -24.195312 41.015625 -23.1875 C 40.140625 -21.382812 38.953125 -19.8125 37.453125 -18.46875 C 35.953125 -17.125 34.3125 -16.082031 32.53125 -15.34375 C 30.757812 -14.613281 29 -14.226562 27.25 -14.1875 C 26.289062 -12.175781 25.144531 -10.304688 23.8125 -8.578125 C 22.476562 -6.847656 20.984375 -5.367188 19.328125 -4.140625 C 17.679688 -2.921875 15.90625 -2.035156 14 -1.484375 C 12.101562 -0.941406 10.109375 -0.867188 8.015625 -1.265625 C 5.160156 -1.765625 2.835938 -2.738281 1.046875 -4.1875 C -0.734375 -5.644531 -2.050781 -7.398438 -2.90625 -9.453125 C -3.757812 -11.515625 -4.207031 -13.734375 -4.25 -16.109375 C -4.289062 -18.484375 -4 -20.859375 -3.375 -23.234375 C -2.75 -25.609375 -1.835938 -27.828125 -0.640625 -29.890625 C 0.546875 -31.960938 1.945312 -33.726562 3.5625 -35.1875 C 5.1875 -36.644531 6.953125 -37.648438 8.859375 -38.203125 C 10.296875 -38.597656 11.609375 -38.457031 12.796875 -37.78125 C 13.984375 -37.113281 14.898438 -36.195312 15.546875 -35.03125 C 16.617188 -36.570312 18.109375 -37.695312 20.015625 -38.40625 C 20.984375 -38.820312 22.007812 -38.957031 23.09375 -38.8125 Z M 13.9375 -25.421875 C 13.238281 -24.335938 12.75 -23.28125 12.46875 -22.25 C 12.195312 -21.226562 12.101562 -20.347656 12.1875 -19.609375 C 12.269531 -18.878906 12.484375 -18.378906 12.828125 -18.109375 C 13.171875 -17.847656 13.609375 -17.914062 14.140625 -18.3125 C 14.671875 -18.707031 15.242188 -19.515625 15.859375 -20.734375 L 15.75 -20.984375 C 15.3125 -21.679688 14.945312 -22.398438 14.65625 -23.140625 C 14.363281 -23.890625 14.125 -24.648438 13.9375 -25.421875 Z M 13.9375 -25.421875 "/></g></g></g><g fill="#ff9149" fill-opacity="1"><g transform="translate(302.364287, 290.682942)"><g><path d="M 26.28125 -40.65625 C 28.175781 -40.65625 29.738281 -40.289062 30.96875 -39.5625 C 32.195312 -38.84375 33.15625 -37.851562 33.84375 -36.59375 C 34.539062 -35.34375 35.007812 -33.894531 35.25 -32.25 C 35.488281 -30.613281 35.582031 -28.898438 35.53125 -27.109375 C 36.769531 -27.929688 37.925781 -28.628906 39 -29.203125 C 40.082031 -29.773438 40.960938 -30.097656 41.640625 -30.171875 C 42.546875 -30.273438 43.304688 -30.113281 43.921875 -29.6875 C 44.546875 -29.257812 44.960938 -28.691406 45.171875 -27.984375 C 45.390625 -27.285156 45.378906 -26.539062 45.140625 -25.75 C 44.898438 -24.96875 44.378906 -24.265625 43.578125 -23.640625 C 43.015625 -23.191406 42.265625 -22.535156 41.328125 -21.671875 C 40.398438 -20.816406 39.375 -19.835938 38.25 -18.734375 C 37.132812 -17.640625 36.003906 -16.546875 34.859375 -15.453125 C 33.710938 -14.359375 32.65625 -13.367188 31.6875 -12.484375 C 31.144531 -11.171875 30.445312 -9.828125 29.59375 -8.453125 C 28.738281 -7.085938 27.765625 -5.832031 26.671875 -4.6875 C 25.585938 -3.539062 24.390625 -2.59375 23.078125 -1.84375 C 21.566406 -1 20.207031 -0.59375 19 -0.625 C 17.789062 -0.664062 16.757812 -1.015625 15.90625 -1.671875 C 15.0625 -2.335938 14.425781 -3.203125 14 -4.265625 C 13.582031 -5.335938 13.425781 -6.484375 13.53125 -7.703125 C 13.632812 -8.921875 14.039062 -10.085938 14.75 -11.203125 C 15.269531 -12.078125 15.929688 -12.90625 16.734375 -13.6875 C 17.535156 -14.476562 18.347656 -15.222656 19.171875 -15.921875 C 20.003906 -16.617188 20.71875 -17.242188 21.3125 -17.796875 C 21.613281 -18.773438 21.914062 -19.597656 22.21875 -20.265625 C 22.519531 -20.941406 22.753906 -21.585938 22.921875 -22.203125 C 23.085938 -22.828125 23.050781 -23.351562 22.8125 -23.78125 C 22.570312 -24.21875 22.203125 -24.492188 21.703125 -24.609375 C 21.210938 -24.734375 20.660156 -24.625 20.046875 -24.28125 C 19.429688 -23.945312 18.835938 -23.316406 18.265625 -22.390625 C 16.972656 -20.378906 15.644531 -18 14.28125 -15.25 C 12.925781 -12.507812 11.609375 -9.585938 10.328125 -6.484375 C 9.046875 -3.390625 7.835938 -0.28125 6.703125 2.84375 C 5.566406 5.976562 4.570312 8.96875 3.71875 11.8125 C 2.875 14.664062 2.222656 17.171875 1.765625 19.328125 C 1.441406 20.671875 0.773438 21.691406 -0.234375 22.390625 C -1.253906 23.085938 -2.4375 23.476562 -3.78125 23.5625 C -5.132812 23.65625 -6.476562 23.492188 -7.8125 23.078125 C -9.15625 22.671875 -10.316406 22.039062 -11.296875 21.1875 C -12.285156 20.332031 -12.953125 19.289062 -13.296875 18.0625 C -13.648438 16.84375 -13.476562 15.476562 -12.78125 13.96875 C -12.425781 13.21875 -11.898438 12.035156 -11.203125 10.421875 C -10.503906 8.816406 -9.707031 6.960938 -8.8125 4.859375 C -7.925781 2.753906 -7.007812 0.53125 -6.0625 -1.8125 C -5.125 -4.15625 -4.238281 -6.429688 -3.40625 -8.640625 C -2.570312 -10.859375 -1.863281 -12.894531 -1.28125 -14.75 C -0.707031 -16.601562 -0.332031 -18.082031 -0.15625 -19.1875 C -0.09375 -19.6875 -0.175781 -20.046875 -0.40625 -20.265625 C -0.644531 -20.492188 -0.945312 -20.671875 -1.3125 -20.796875 C -1.6875 -20.929688 -2.066406 -21.078125 -2.453125 -21.234375 C -2.847656 -21.390625 -3.171875 -21.597656 -3.421875 -21.859375 C -3.984375 -22.515625 -3.910156 -23.476562 -3.203125 -24.75 C -2.398438 -26.144531 -1.53125 -27.488281 -0.59375 -28.78125 C 0.34375 -30.082031 1.238281 -31.234375 2.09375 -32.234375 C 2.945312 -33.242188 3.644531 -33.992188 4.1875 -34.484375 C 5.476562 -35.710938 6.941406 -36.414062 8.578125 -36.59375 C 10.222656 -36.78125 11.800781 -36.472656 13.3125 -35.671875 C 14.082031 -35.273438 14.648438 -34.890625 15.015625 -34.515625 C 15.378906 -34.140625 15.671875 -33.863281 15.890625 -33.6875 C 16.109375 -33.519531 16.351562 -33.539062 16.625 -33.75 C 16.894531 -33.96875 17.296875 -34.460938 17.828125 -35.234375 C 19.054688 -36.953125 20.421875 -38.28125 21.921875 -39.21875 C 23.421875 -40.164062 24.875 -40.644531 26.28125 -40.65625 Z M 26.28125 -40.65625 "/></g></g></g><g clip-path="url(#b6581abd3b)"><g clip-path="url(#679c080e08)"><path stroke-linecap="butt" transform="matrix(0.75, 0, 0, 0.75, 20.154834, 232.060005)" fill="none" stroke-linejoin="miter" d="M 31.257096 -0.00188135 C 13.99668 -0.00188135 0.00188792 13.99291 0.00188792 31.258535 C 0.00188792 48.518952 13.99668 62.513744 31.257096 62.513744 C 48.522721 62.513744 62.517513 48.518952 62.517513 31.258535 C 62.517513 13.99291 48.522721 -0.00188135 31.257096 -0.00188135 Z M 31.257096 -0.00188135 " stroke="#ffffff" stroke-width="6" stroke-opacity="1" stroke-miterlimit="4"/></g></g><g clip-path="url(#1fa4dafa65)"><g clip-path="url(#6f1c499308)"><path fill="#ffffff" d="M 27.480469 239.386719 L 59.726562 239.386719 L 59.726562 271.628906 L 27.480469 271.628906 Z M 27.480469 239.386719 " fill-opacity="1" fill-rule="nonzero"/></g></g><g clip-path="url(#bcb4fe3e9b)"><g clip-path="url(#3ed67c788e)"><path stroke-linecap="butt" transform="matrix(0.75, 0, 0, 0.75, 27.480151, 239.38532)" fill="none" stroke-linejoin="miter" d="M 21.490008 0.00186463 C 9.620216 0.00186463 0.000423646 9.621657 0.000423646 21.491449 C 0.000423646 33.361242 9.620216 42.986242 21.490008 42.986242 C 33.359801 42.986242 42.984801 33.361242 42.984801 21.491449 C 42.984801 9.621657 33.359801 0.00186463 21.490008 0.00186463 Z M 21.490008 0.00186463 " stroke="#60b5ff" stroke-width="4" stroke-opacity="1" stroke-miterlimit="4"/></g></g><g clip-path="url(#aa657678b5)"><g clip-path="url(#c79f556c43)"><path stroke-linecap="butt" transform="matrix(0.75, 0, 0, 0.75, 24.502398, 236.407573)" fill="none" stroke-linejoin="miter" d="M 25.460345 -0.00176437 C 11.397844 -0.00176437 0.00201035 11.399278 0.00201035 25.461779 C 0.00201035 39.52428 11.397844 50.920114 25.460345 50.920114 C 39.522846 50.920114 50.923889 39.52428 50.923889 25.461779 C 50.923889 11.399278 39.522846 -0.00176437 25.460345 -0.00176437 Z M 25.460345 -0.00176437 " stroke="#ffffff" stroke-width="6" stroke-opacity="1" stroke-miterlimit="4"/></g></g><g clip-path="url(#54079342d5)"><g clip-path="url(#fe70c91b58)"><g clip-path="url(#62088b6429)"><path fill="#ffffff" d="M 3.699219 301.015625 C 3.089844 297.449219 3.320312 293.730469 4.359375 290.261719 L 6.886719 281.820312 L 9.738281 272.675781 C 10.703125 269.582031 14.003906 267.847656 17.097656 268.8125 C 17.691406 269 18.238281 269.269531 18.730469 269.617188 C 20 270.507812 20.878906 271.902344 21.140625 273.4375 C 21.296875 274.34375 21.234375 275.289062 20.960938 276.171875 L 19.503906 280.832031 L 38.609375 253.640625 C 40.472656 250.992188 44.136719 250.347656 46.789062 252.203125 C 46.808594 252.214844 46.890625 252.273438 46.890625 252.273438 C 48.105469 253.164062 48.914062 254.484375 49.171875 255.988281 C 49.4375 257.554688 49.066406 259.199219 48.152344 260.5 L 40.46875 271.441406 C 42.386719 270.332031 44.859375 270.359375 46.792969 271.71875 L 46.882812 271.78125 C 48.097656 272.671875 48.910156 273.992188 49.167969 275.5 C 49.433594 277.0625 49.0625 278.707031 48.148438 280.007812 L 47.832031 280.460938 C 49.75 279.332031 52.203125 279.308594 54.113281 280.597656 L 54.207031 280.664062 C 55.5 281.570312 56.355469 282.925781 56.621094 284.484375 C 56.882812 286.023438 56.535156 287.574219 55.636719 288.847656 L 54.464844 290.515625 C 56.382812 289.390625 58.839844 289.367188 60.75 290.660156 C 60.785156 290.683594 60.820312 290.707031 60.859375 290.734375 C 62.140625 291.640625 62.992188 292.992188 63.253906 294.542969 C 63.515625 296.082031 63.167969 297.628906 62.269531 298.90625 L 52.273438 313.136719 L 51.683594 313.980469 C 51.671875 313.996094 50.941406 315.011719 50.488281 315.492188 C 45.507812 321.371094 38.242188 324.257812 30.027344 323.625 C 26.976562 323.390625 24.035156 322.605469 21.289062 321.289062 C 20.054688 320.707031 18.839844 319.996094 17.679688 319.183594 L 13.121094 315.980469 C 12.914062 315.832031 12.714844 315.6875 12.515625 315.539062 C 7.828125 312.035156 4.699219 306.875 3.699219 301.015625 " fill-opacity="1" fill-rule="nonzero"/></g></g></g><g clip-path="url(#f0400308db)"><g clip-path="url(#7bd31f19e4)"><g clip-path="url(#4087a173d7)"><g clip-path="url(#751fe2a0f3)"><path fill="#60b5ff" d="M 65.195312 294.210938 C 64.84375 292.148438 63.714844 290.347656 62.011719 289.136719 C 61.941406 289.085938 61.882812 289.046875 61.851562 289.027344 C 60.789062 288.308594 59.589844 287.875 58.34375 287.746094 C 58.691406 286.59375 58.769531 285.371094 58.5625 284.152344 C 58.207031 282.074219 57.0625 280.261719 55.339844 279.050781 L 55.285156 279.011719 L 55.25 278.988281 L 55.21875 278.964844 C 53.992188 278.140625 52.589844 277.691406 51.136719 277.648438 C 51.257812 276.828125 51.25 275.988281 51.109375 275.167969 C 50.765625 273.160156 49.683594 271.398438 48.0625 270.203125 C 48.046875 270.191406 48.03125 270.179688 48.015625 270.171875 L 47.976562 270.140625 L 47.925781 270.105469 C 46.941406 269.414062 45.851562 268.980469 44.738281 268.792969 L 49.765625 261.632812 C 50.976562 259.910156 51.46875 257.730469 51.113281 255.660156 C 50.769531 253.644531 49.683594 251.875 48.050781 250.683594 L 47.992188 250.640625 L 47.972656 250.628906 C 47.953125 250.613281 47.933594 250.597656 47.914062 250.585938 C 44.375 248.113281 39.480469 248.972656 37 252.507812 L 22.953125 272.496094 C 22.496094 270.691406 21.390625 269.078125 19.863281 268.003906 C 19.203125 267.542969 18.476562 267.183594 17.703125 266.9375 L 17.691406 266.933594 L 17.683594 266.933594 C 13.554688 265.644531 9.144531 267.957031 7.859375 272.085938 L 5.007812 281.234375 L 4.992188 281.277344 L 2.472656 289.695312 C 1.347656 293.457031 1.097656 297.484375 1.757812 301.347656 C 2.839844 307.707031 6.242188 313.308594 11.328125 317.113281 L 11.335938 317.117188 L 11.339844 317.121094 C 11.554688 317.28125 11.769531 317.4375 11.976562 317.582031 L 11.980469 317.589844 L 11.988281 317.59375 L 16.546875 320.792969 C 17.792969 321.671875 19.105469 322.433594 20.445312 323.070312 C 23.414062 324.488281 26.582031 325.335938 29.875 325.589844 C 38.726562 326.269531 46.566406 323.148438 51.96875 316.792969 C 52.535156 316.171875 53.28125 315.128906 53.289062 315.117188 L 53.292969 315.113281 L 53.292969 315.109375 L 53.886719 314.269531 L 56.167969 311.019531 L 63.882812 300.039062 C 65.082031 298.332031 65.546875 296.265625 65.195312 294.210938 Z M 61.3125 294.875 C 61.480469 295.851562 61.277344 296.898438 60.660156 297.773438 L 52.945312 308.753906 L 50.660156 312.003906 L 50.070312 312.847656 C 49.871094 313.128906 49.257812 313.9375 49.023438 314.175781 C 44.164062 319.9375 37.320312 322.210938 30.175781 321.660156 C 27.4375 321.449219 24.710938 320.742188 22.140625 319.511719 C 20.996094 318.972656 19.882812 318.320312 18.8125 317.570312 L 14.253906 314.367188 C 14.0625 314.234375 13.875 314.097656 13.691406 313.960938 C 9.304688 310.675781 6.527344 305.878906 5.640625 300.683594 C 5.089844 297.460938 5.269531 294.085938 6.246094 290.824219 L 8.769531 282.40625 L 11.617188 273.261719 C 12.261719 271.199219 14.453125 270.050781 16.511719 270.695312 C 16.910156 270.820312 17.273438 271 17.597656 271.226562 C 18.453125 271.832031 19.027344 272.75 19.199219 273.769531 C 19.300781 274.359375 19.265625 274.976562 19.078125 275.585938 L 16.679688 283.277344 L 16.546875 283.707031 C 16.472656 283.945312 16.460938 284.171875 16.496094 284.378906 C 16.558594 284.753906 16.777344 285.058594 17.066406 285.265625 C 17.648438 285.671875 18.515625 285.667969 19.035156 284.929688 L 40.222656 254.773438 C 41.460938 253.007812 43.902344 252.582031 45.667969 253.820312 C 45.6875 253.835938 45.707031 253.851562 45.726562 253.863281 C 46.5625 254.472656 47.070312 255.363281 47.230469 256.320312 C 47.40625 257.351562 47.183594 258.457031 46.542969 259.371094 L 28.941406 284.417969 C 28.671875 284.800781 28.585938 285.257812 28.65625 285.6875 C 28.730469 286.097656 28.953125 286.480469 29.304688 286.746094 C 29.320312 286.761719 29.335938 286.769531 29.351562 286.78125 C 30.121094 287.324219 31.222656 287.082031 31.769531 286.304688 L 40.21875 274.28125 C 41.457031 272.515625 43.894531 272.089844 45.660156 273.328125 C 45.679688 273.34375 45.699219 273.359375 45.71875 273.371094 C 46.554688 273.984375 47.0625 274.875 47.226562 275.828125 C 47.402344 276.859375 47.175781 277.964844 46.535156 278.878906 L 36.945312 292.53125 C 36.675781 292.914062 36.585938 293.371094 36.65625 293.800781 C 36.730469 294.207031 36.953125 294.589844 37.308594 294.859375 C 37.320312 294.871094 37.335938 294.882812 37.355469 294.894531 C 38.125 295.433594 39.222656 295.191406 39.769531 294.417969 L 47.558594 283.332031 C 48.792969 281.570312 51.230469 281.027344 53.011719 282.230469 C 53.035156 282.246094 53.054688 282.261719 53.074219 282.273438 C 53.960938 282.898438 54.511719 283.824219 54.679688 284.816406 C 54.847656 285.796875 54.640625 286.839844 54.027344 287.71875 L 44.75 300.917969 C 44.480469 301.300781 44.390625 301.753906 44.464844 302.179688 C 44.539062 302.613281 44.777344 303.015625 45.164062 303.285156 C 45.929688 303.824219 46.988281 303.640625 47.527344 302.875 L 54.191406 293.390625 C 55.429688 291.628906 57.867188 291.085938 59.648438 292.289062 C 59.667969 292.304688 59.6875 292.316406 59.707031 292.332031 C 60.59375 292.957031 61.144531 293.882812 61.3125 294.875 " fill-opacity="1" fill-rule="nonzero"/></g></g></g></g><path stroke-linecap="butt" transform="matrix(0.75, 0, 0, 0.75, 33.928827, 131.481613)" fill="none" stroke-linejoin="miter" d="M 4.001148 25.774518 L 4.001148 14.8891 C 4.001148 11.998475 5.146981 9.23285 7.188648 7.191183 C 9.230315 5.149516 12.001148 3.998475 14.886565 3.998475 L 36.433442 3.998475 " stroke="#ffffff" stroke-width="8" stroke-opacity="1" stroke-miterlimit="4"/></svg>